<mxfile host="app.diagrams.net" modified="2024-05-16T11:46:27.291Z" agent="Mozilla/5.0 (Windows NT 10.0; Win64; x64) AppleWebKit/537.36 (KHTML, like Gecko) Chrome/120.0.0.0 Safari/537.36" version="24.4.2" etag="YN7Sy4YTtnhD5D21QqN8" type="github">
  <diagram name="第 1 页" id="_oJfXwDzdJKC99SvkWc1">
    <mxGraphModel>
      <root>
        <mxCell id="0" />
        <mxCell id="1" parent="0" />
      </root>
    </mxGraphModel>
  </diagram>
</mxfile>
